<svg width="124" height="124" viewBox="0 0 124 124" fill="none" xmlns="http://www.w3.org/2000/svg">
<path d="M42.6845 59L51.9005 42.416H53.9645L44.7485 59H42.6845ZM38.7965 46.832C38.7965 44.192 40.1645 42.08 42.9485 42.08C45.6605 42.08 47.0765 44.192 47.0765 46.832C47.0765 49.496 45.7085 51.608 42.9485 51.608C40.2125 51.608 38.7965 49.496 38.7965 46.832ZM40.9805 46.832C40.9805 48.656 41.6045 49.808 42.9485 49.808C44.2685 49.808 44.8925 48.656 44.8925 46.832C44.8925 45.008 44.2685 43.856 42.9485 43.856C41.6045 43.856 40.9805 45.008 40.9805 46.832ZM49.5965 54.584C49.5965 51.92 50.9645 49.808 53.7245 49.808C56.4605 49.808 57.8525 51.92 57.8525 54.584C57.8525 57.224 56.4845 59.336 53.7245 59.336C50.9885 59.336 49.5965 57.224 49.5965 54.584ZM51.7565 54.584C51.7565 56.408 52.4045 57.56 53.7245 57.56C55.0445 57.56 55.6925 56.408 55.6925 54.584C55.6925 52.76 55.0445 51.608 53.7245 51.608C52.4045 51.608 51.7565 52.76 51.7565 54.584ZM65.387 59.336C60.635 59.336 58.931 55.808 58.931 50.744C58.931 45.296 61.307 42.08 65.411 42.08C68.531 42.08 70.571 44.144 70.859 46.616H68.195C67.979 45.248 67.187 44.24 65.411 44.24C62.315 44.24 61.523 47.12 61.523 49.976V50.216L61.595 50.24C62.459 48.848 63.971 48.056 65.867 48.056C69.083 48.056 71.315 50.312 71.315 53.576C71.315 56.792 69.059 59.336 65.387 59.336ZM61.811 53.768C61.811 55.784 63.059 57.176 65.315 57.176C67.499 57.176 68.675 55.808 68.675 53.72C68.675 51.536 67.403 50.24 65.483 50.24C63.203 50.24 61.811 51.68 61.811 53.768ZM78.7942 59.336C74.8342 59.336 72.6742 56.936 72.5782 54.152H75.2182C75.3862 55.664 76.2502 57.104 78.6502 57.104C80.7622 57.104 82.1542 55.808 82.1542 53.336C82.1542 51.008 80.8822 49.952 78.8182 49.952C77.4742 49.952 76.2502 50.408 75.4582 51.44H72.7942L74.5702 42.416H84.0022V44.648H76.5622L75.6502 49.232V49.28C76.5142 48.392 77.7382 47.84 79.5142 47.84C82.6582 47.84 84.8422 50.168 84.8422 53.336C84.8422 57.008 82.2022 59.336 78.7942 59.336Z" fill="#E61111"/>
<path d="M62 3.1C62 1.38792 63.3888 -0.00808593 65.0988 0.0774769C74.6322 0.554515 83.9419 3.22755 92.2945 7.90525C101.55 13.0886 109.321 20.5601 114.864 29.6051C120.406 38.65 123.536 48.9659 123.952 59.5659C124.369 70.1659 122.058 80.6955 117.242 90.1474C112.426 99.5994 105.266 107.658 96.4454 113.551C87.625 119.445 77.4399 122.977 66.8645 123.809C56.289 124.641 45.6769 122.746 36.0431 118.305C27.3492 114.297 19.7146 108.336 13.7251 100.904C12.6508 99.571 12.9638 97.6269 14.3489 96.6206V96.6206C15.734 95.6142 17.6661 95.9275 18.7478 97.2546C24.1086 103.832 30.9084 109.111 38.6388 112.674C47.3092 116.671 56.8601 118.377 66.378 117.628C75.896 116.879 85.0625 113.7 93.0008 108.396C100.939 103.092 107.384 95.8394 111.718 87.3327C116.053 78.8259 118.132 69.3493 117.757 59.8093C117.382 50.2693 114.566 40.985 109.577 32.8446C104.589 24.7041 97.5951 17.9798 89.2651 13.3147C81.8382 9.15545 73.5705 6.75722 65.0985 6.28609C63.3891 6.19102 62 4.81208 62 3.1V3.1Z" fill="#E61111"/>
<path d="M22.1487 81.182C19.5307 81.182 18.3827 79.754 18.3827 77.626V70.99H19.4047V77.626C19.4047 79.418 20.3007 80.286 22.1487 80.286C23.9967 80.286 24.8927 79.418 24.8927 77.626V70.99H25.9147V77.626C25.9147 79.754 24.7667 81.182 22.1487 81.182ZM20.5247 69.562V68.386H21.7007V69.562H20.5247ZM22.6107 69.562V68.386H23.7867V69.562H22.6107ZM28.4902 77.01V81H27.5802V73.86H28.4902V75.316H28.5182C28.8822 74.378 29.5402 73.692 30.5482 73.692C30.8002 73.692 30.9962 73.706 31.1642 73.734V74.63C31.0242 74.602 30.8702 74.588 30.7302 74.588C29.4422 74.588 28.4902 75.624 28.4902 77.01ZM34.7605 81.196C32.5765 81.196 31.3585 79.6 31.3585 77.43C31.3585 75.148 32.7025 73.678 34.7605 73.678C36.8185 73.678 37.9805 75.12 37.9805 77.108C37.9805 77.304 37.9805 77.5 37.9665 77.612H32.3105C32.3245 79.054 33.0945 80.412 34.7745 80.412C36.2445 80.412 36.8185 79.404 36.9585 78.816H37.8825C37.5325 80.118 36.5525 81.196 34.7605 81.196ZM32.3105 76.814H37.0145C37.0145 75.54 36.1885 74.462 34.7185 74.462C33.3325 74.462 32.3805 75.484 32.3105 76.814ZM41.2323 81.056C40.1963 81.056 39.5523 80.706 39.5523 79.152V74.658H38.5023V73.86H39.5523V71.48H40.4623V73.86H41.9043V74.658H40.4623V79.166C40.4623 80.048 40.6583 80.258 41.3583 80.258C41.5823 80.258 41.6943 80.244 41.9043 80.23V81C41.6243 81.042 41.4563 81.056 41.2323 81.056ZM43.0841 81V70.99H43.9941V77.22L47.5361 73.86H48.6561L45.8421 76.478L49.0061 81H47.9281L45.2261 77.052L43.9941 78.2V81H43.0841ZM52.3288 81.196C50.1448 81.196 48.9268 79.6 48.9268 77.43C48.9268 75.148 50.2708 73.678 52.3288 73.678C54.3868 73.678 55.5488 75.12 55.5488 77.108C55.5488 77.304 55.5488 77.5 55.5348 77.612H49.8788C49.8928 79.054 50.6628 80.412 52.3428 80.412C53.8128 80.412 54.3868 79.404 54.5268 78.816H55.4508C55.1008 80.118 54.1208 81.196 52.3288 81.196ZM49.8788 76.814H54.5828C54.5828 75.54 53.7568 74.462 52.2868 74.462C50.9008 74.462 49.9488 75.484 49.8788 76.814ZM61.6404 76.184C61.6404 75.274 61.2204 74.49 59.9884 74.49C58.6304 74.49 57.7344 75.442 57.7344 76.492V81H56.8244V73.86H57.7344V74.882H57.7624C58.1684 74.294 58.9384 73.692 60.2124 73.692C61.4864 73.692 62.5504 74.406 62.5504 75.988V81H61.6404V76.184ZM64.1798 81V70.99H65.0898V81H64.1798ZM66.7638 81V73.86H67.6738V81H66.7638ZM66.6238 72.432V71.256H67.7998V72.432H66.6238ZM69.3478 81V70.99H70.2578V77.22L73.7998 73.86H74.9198L72.1058 76.478L75.2698 81H74.1918L71.4898 77.052L70.2578 78.2V81H69.3478ZM77.6026 81L81.3406 70.99H82.4886L86.2546 81H85.1626L84.1546 78.228H79.6606L78.6526 81H77.6026ZM79.9966 77.318H83.8326L81.9286 71.956H81.9006L79.9966 77.318ZM88.1133 77.01V81H87.2033V73.86H88.1133V75.316H88.1413C88.5053 74.378 89.1633 73.692 90.1713 73.692C90.4233 73.692 90.6193 73.706 90.7873 73.734V74.63C90.6473 74.602 90.4933 74.588 90.3533 74.588C89.0653 74.588 88.1133 75.624 88.1133 77.01ZM93.828 81.056C92.792 81.056 92.148 80.706 92.148 79.152V74.658H91.098V73.86H92.148V71.48H93.058V73.86H94.5V74.658H93.058V79.166C93.058 80.048 93.254 80.258 93.954 80.258C94.178 80.258 94.29 80.244 94.5 80.23V81C94.22 81.042 94.052 81.056 93.828 81.056ZM95.6798 81V73.86H96.5898V81H95.6798ZM100.462 83.716C99.9158 83.716 99.3978 83.534 99.0198 83.296L99.2858 82.988C99.6078 83.128 99.9158 83.212 100.294 83.212C100.798 83.212 101.064 83.002 101.064 82.652C101.064 82.316 100.84 82.19 100.476 82.19C100.28 82.19 100.028 82.232 99.8878 82.302L99.7198 82.05L100.448 81.168C98.7258 81.014 97.8018 79.978 97.7598 78.662H98.7118C98.7678 79.642 99.4118 80.384 100.91 80.384C102.268 80.384 102.73 79.754 102.73 79.054C102.73 78.004 101.666 77.892 100.672 77.654C99.3558 77.318 98.0258 76.996 98.0258 75.61C98.0258 74.448 98.9498 73.692 100.56 73.692C102.422 73.692 103.29 74.686 103.416 75.862H102.464C102.338 75.232 101.96 74.49 100.574 74.49C99.5518 74.49 98.9778 74.882 98.9778 75.554C98.9778 76.45 99.9438 76.576 101.022 76.842C102.366 77.164 103.696 77.542 103.696 79.026C103.696 80.286 102.716 81.14 101.036 81.182L100.56 81.756V81.784C101.19 81.672 101.876 81.924 101.876 82.666C101.876 83.408 101.204 83.716 100.462 83.716ZM104.867 81V73.86H105.777V81H104.867Z" fill="black"/>
</svg>
