<svg width="119" height="24" viewBox="0 0 119 24" fill="none" xmlns="http://www.w3.org/2000/svg">
<path fill-rule="evenodd" clip-rule="evenodd" d="M14.6993 13.2174C14.8508 13.3706 15.1205 13.6183 15.1637 13.8285C15.178 13.8942 15.1766 13.9622 15.1596 14.0272C15.1426 14.0922 15.1105 14.1523 15.066 14.2025C15.022 14.2553 14.9667 14.2974 14.9042 14.3259C14.8417 14.3544 14.7737 14.3685 14.705 14.3671L12.0806 14.3655C11.8687 14.3655 11.6707 14.3899 11.4679 14.3125C11.3261 14.2561 11.2026 14.1616 11.111 14.0396C10.9334 13.9067 10.7851 13.7381 10.627 13.5849L8.16471 11.2041C7.9219 10.9686 7.63102 10.8 7.62939 10.4195C7.62939 10.2541 7.71332 10.1123 7.86161 10.0284C8.1419 9.87111 8.423 9.67556 8.69106 9.49875C8.88417 9.37083 9.07727 9.24372 9.27363 9.12069C9.41785 9.03107 9.58733 8.92351 9.74621 8.85996C9.80614 8.83487 9.87065 8.82256 9.93561 8.82382C10.0006 8.82508 10.0645 8.83989 10.1235 8.86729L10.7403 9.39609L14.7001 13.2183L14.6993 13.2174Z" fill="#EE3B68"/>
<path fill-rule="evenodd" clip-rule="evenodd" d="M86.2472 15.5836V15.2251H84.3798C84.053 15.2251 83.3727 15.2463 83.1511 15.5428C83.0663 15.6569 83.046 15.8117 83.046 15.9502C83.046 16.62 83.7173 16.8009 84.2698 16.8009C84.9688 16.8009 85.9433 16.5279 86.2 15.7865C86.2228 15.7213 86.2391 15.6528 86.2472 15.5836ZM86.2627 18.3897C85.5767 18.8403 84.7326 19.0073 83.8941 19.0073C82.7665 19.0073 81.6502 18.5893 81.0237 17.6043C80.7283 17.1324 80.5742 16.5859 80.5796 16.0293C80.5796 15.938 80.5837 15.8468 80.591 15.7571L81.7464 13.7495C82.4243 13.2924 83.2928 13.1294 84.1133 13.1294H86.2424C86.1788 12.2519 85.4977 11.9773 84.6454 11.9773C83.8339 11.9773 83.0688 12.3065 82.4063 12.7579C82.3696 12.7831 82.3288 12.8019 82.2858 12.8133L84.0229 9.79615C84.3341 9.75786 84.6666 9.73912 85.0365 9.73912C86.1796 9.73912 87.3749 10.0406 88.1213 10.9719C88.6004 11.5691 88.7926 12.3057 88.7943 13.0626L88.8106 18.538C88.8115 18.5895 88.8019 18.6407 88.7823 18.6883C88.7627 18.736 88.7335 18.7791 88.6965 18.815C88.6609 18.8518 88.6182 18.8808 88.571 18.9005C88.5238 18.9201 88.473 18.9298 88.4219 18.9291H86.6514C86.5482 18.9289 86.4494 18.8878 86.3765 18.8147C86.3036 18.7417 86.2627 18.6428 86.2627 18.5396V18.3897ZM91.2549 6.31864C92.117 6.31864 92.7541 6.93788 92.7541 7.80644C92.7541 8.66604 92.1096 9.29424 91.2549 9.29424C90.4149 9.29424 89.772 8.64893 89.772 7.80644C89.772 6.95581 90.4076 6.31864 91.2549 6.31864ZM0.908117 0.0244141H3.14878C3.40544 0.0244141 3.61565 0.262332 3.61565 0.554025V9.14188C3.61565 9.43276 3.40544 9.66986 3.14797 9.66986H0.907302C0.650645 9.66986 0.44043 9.43276 0.44043 9.14188V0.554025C0.44043 0.261517 0.650645 0.0244141 0.908117 0.0244141ZM10.9976 0.25174C11.0384 0.181832 11.0969 0.124013 11.1674 0.0842101C11.2378 0.044407 11.3176 0.0240511 11.3985 0.0252288L14.5191 0.0309324C14.6028 0.030177 14.685 0.0524256 14.7569 0.095247C14.8287 0.138068 14.8874 0.199815 14.9265 0.273739C14.9681 0.346825 14.9888 0.429942 14.9864 0.514005C14.984 0.598068 14.9585 0.679842 14.9127 0.750389C14.8638 0.827794 14.8296 0.872607 14.7685 0.941049C14.7293 0.985048 14.6878 1.02253 14.6462 1.06327C13.0533 2.63744 11.5036 4.25479 9.90255 5.81918C9.62715 6.08806 9.3542 6.36101 9.0845 6.63641L8.58341 7.15054L8.92562 7.5066C9.01094 7.59534 9.05806 7.71401 9.05684 7.83711C9.05562 7.96021 9.00617 8.07792 8.9191 8.16495C8.88049 8.20382 8.8388 8.23952 8.79444 8.27169L8.78303 8.27983L7.02228 9.49387C6.95319 9.54275 6.87188 9.57146 6.78741 9.57679C6.70295 9.58211 6.61867 9.56384 6.544 9.52401C6.41037 9.45557 6.19853 9.23965 6.08772 9.13373C5.64846 8.71436 5.21575 8.28817 4.78976 7.85533C4.6708 7.73556 4.51762 7.59052 4.41496 7.45771C4.35942 7.38771 4.32545 7.30305 4.31721 7.21407C4.30896 7.1251 4.32679 7.03564 4.36852 6.95662C4.4394 6.81974 4.62029 6.63885 4.72784 6.52641C4.90953 6.33575 5.09531 6.14917 5.28189 5.96421C5.55648 5.68881 5.83595 5.4183 6.11135 5.14453C6.66459 4.59863 7.21131 4.04457 7.76129 3.49541L10.2602 0.998899C10.3963 0.863644 10.5373 0.732464 10.6733 0.597209C10.7646 0.507583 10.9275 0.355217 10.9976 0.25174ZM99.0133 15.5836V15.2251H97.145C96.8191 15.2251 96.1388 15.2463 95.9171 15.5428C95.8324 15.6569 95.812 15.8117 95.812 15.9502C95.812 16.62 96.4834 16.8009 97.0358 16.8009C97.7349 16.8009 98.7094 16.5279 98.9661 15.7865C98.9889 15.7213 99.0044 15.6528 99.0133 15.5836ZM99.0288 18.3897C98.3428 18.8403 97.4986 19.0073 96.6602 19.0073C95.5326 19.0073 94.4163 18.5893 93.7897 17.6043C93.4942 17.1325 93.3401 16.5859 93.3457 16.0293C93.3457 15.4842 93.476 14.9562 93.7743 14.4967C94.4473 13.4594 95.7126 13.1294 96.8786 13.1294H99.0084C98.9441 12.2519 98.2637 11.9773 97.4115 11.9773C96.5999 11.9773 95.834 12.3065 95.1724 12.7579C95.1288 12.7884 95.0793 12.8092 95.027 12.819C94.9748 12.8289 94.921 12.8275 94.8693 12.8149C94.8172 12.804 94.7679 12.7821 94.7249 12.7506C94.6819 12.7192 94.6462 12.6789 94.62 12.6324L93.8842 11.3777C93.8325 11.2889 93.8177 11.1833 93.8432 11.0837C93.8686 10.9842 93.9323 10.8986 94.0203 10.8456C95.3305 10.065 96.2447 9.73993 97.8026 9.73993C98.9457 9.73993 100.141 10.0414 100.887 10.9719C101.366 11.5691 101.558 12.3057 101.56 13.0626L101.577 18.538C101.578 18.5895 101.568 18.6407 101.548 18.6883C101.529 18.736 101.5 18.7791 101.463 18.815C101.427 18.8518 101.384 18.8808 101.337 18.9005C101.29 18.9201 101.239 18.9298 101.188 18.9291H99.4166C99.3136 18.9287 99.215 18.8874 99.1423 18.8144C99.0696 18.7415 99.0288 18.6426 99.0288 18.5396V18.3897ZM59.5198 13.9736C59.485 14.0588 59.4253 14.1315 59.3486 14.1824C59.2719 14.2333 59.1816 14.2599 59.0896 14.2587H56.7715C56.6935 14.2597 56.6165 14.2406 56.548 14.2032C56.4795 14.1658 56.4218 14.1114 56.3804 14.0453C56.3369 13.9804 56.3106 13.9055 56.3042 13.8276C56.2978 13.7497 56.3114 13.6715 56.3438 13.6004L62.1662 0.374772C62.2018 0.291019 62.2614 0.219728 62.3376 0.169963C62.4138 0.120199 62.503 0.0942102 62.594 0.0953005H64.8746C65.0644 0.0953005 65.2266 0.201223 65.3023 0.376402L68.3863 7.4512L65.4637 8.37842C64.8656 6.97047 64.2676 5.56089 63.6679 4.14479C62.2819 7.41942 60.9049 10.6981 59.5198 13.9736Z" fill="black"/>
<path fill-rule="evenodd" clip-rule="evenodd" d="M68.6299 8.00935L71.0686 13.602C71.1007 13.6733 71.1142 13.7515 71.1076 13.8294C71.101 13.9072 71.0747 13.9821 71.0311 14.0469C70.9894 14.1127 70.9316 14.1667 70.8632 14.2038C70.7947 14.2409 70.7179 14.2598 70.64 14.2588H68.2657C68.1737 14.2598 68.0835 14.2331 68.0068 14.1823C67.9301 14.1314 67.8704 14.0587 67.8355 13.9736C67.1234 12.2902 66.4129 10.6142 65.7008 8.93821L68.6299 8.00935ZM117.61 12.6259C116.995 12.2454 116.143 11.9464 115.419 11.9464C115.205 11.9464 114.797 11.9765 114.651 12.1656C114.605 12.2308 114.583 12.3094 114.587 12.3888C114.587 12.4361 114.595 12.4793 114.616 12.5216C114.718 12.7253 115.127 12.8785 115.325 12.9494C115.813 13.1221 116.317 13.2444 116.805 13.422C118.092 13.888 119.005 14.636 119 16.1246C118.994 18.1388 117.203 18.9919 115.419 18.9919C114.165 18.9919 112.751 18.5837 111.81 17.7298C111.746 17.673 111.703 17.5968 111.687 17.5131C111.672 17.4293 111.684 17.3428 111.723 17.267L112.365 15.9804C112.391 15.9266 112.429 15.8797 112.477 15.8435C112.525 15.8074 112.58 15.7831 112.639 15.7726C112.761 15.7482 112.878 15.7808 112.971 15.8639C113.6 16.4269 114.659 16.8009 115.497 16.8009C115.827 16.8009 116.471 16.752 116.471 16.2957C116.471 15.1135 112.095 15.7637 112.105 12.5282C112.112 10.5621 113.81 9.72366 115.56 9.72366C116.619 9.72366 117.828 10.0268 118.695 10.6427C118.853 10.7544 118.904 10.9605 118.819 11.1332L118.162 12.4671C118.138 12.5159 118.105 12.5592 118.063 12.5939C118.022 12.6286 117.973 12.654 117.921 12.6683C117.869 12.6842 117.815 12.6886 117.761 12.6813C117.707 12.674 117.656 12.6551 117.61 12.6259ZM105.333 14.1186V18.5397C105.333 18.6428 105.292 18.7417 105.219 18.8148C105.146 18.8878 105.047 18.9289 104.944 18.9291H103.145C103.042 18.9289 102.943 18.8878 102.87 18.8148C102.797 18.7417 102.756 18.6428 102.756 18.5397V10.193C102.756 9.97788 102.931 9.80351 103.145 9.80351H104.944C105.158 9.80351 105.333 9.97788 105.333 10.193V10.6411C106.034 10.004 106.967 9.74077 108.012 9.74077C110.206 9.74077 111.498 11.1797 111.498 13.347V18.5405C111.498 18.6435 111.457 18.7423 111.385 18.8153C111.312 18.8883 111.213 18.9295 111.11 18.9299H109.31C109.207 18.9295 109.108 18.8883 109.035 18.8153C108.963 18.7423 108.922 18.6435 108.922 18.5405V13.8489C108.922 12.8141 108.35 12.2079 107.309 12.2137C106.157 12.221 105.447 13.0064 105.333 14.1194V14.1186ZM92.5358 18.7751C92.5358 19.704 92.2538 20.5986 91.5653 21.2439C90.995 21.7792 90.2315 22.0514 89.455 22.0514C88.7477 22.0517 88.0586 21.8272 87.4873 21.4102C87.4166 21.3584 87.3656 21.2842 87.3427 21.1997C87.3197 21.1151 87.3262 21.0253 87.3611 20.9449L87.9558 19.5484C87.9778 19.4943 88.012 19.4461 88.0559 19.4077C88.0997 19.3692 88.152 19.3415 88.2084 19.3267C88.2641 19.31 88.3229 19.3065 88.3801 19.3164C88.4374 19.3263 88.4916 19.3493 88.5384 19.3838C88.7714 19.5508 89.0876 19.6885 89.3776 19.6885C89.8364 19.6885 89.9749 19.3756 89.9749 18.947V10.193C89.9749 9.97788 90.1492 9.80351 90.3627 9.80351H92.1471C92.3606 9.80351 92.5349 9.97788 92.5349 10.193V18.7759L92.5358 18.7751ZM74.5453 11.2995H77.8614L76.1585 14.2588H71.854C71.7301 14.2581 71.6115 14.2085 71.524 14.1207C71.4366 14.033 71.3874 13.9142 71.3871 13.7903V0.562203C71.3871 0.30473 71.5966 0.0937005 71.854 0.0937005H74.0784C74.3351 0.0937005 74.5453 0.30473 74.5453 0.562203V11.2986V11.2995ZM55.203 4.19534C54.178 3.57284 52.7978 3.03508 51.5821 3.03508C51.0053 3.03508 49.9012 3.15567 49.9012 3.9452C49.9012 4.12119 49.9371 4.28496 50.0259 4.43651C50.2622 4.83576 50.8439 5.09079 51.2579 5.24804C51.9716 5.51936 52.7253 5.70758 53.4513 5.95365C55.4736 6.6397 57.0119 7.68425 57.0054 10.0496C57.0037 10.791 56.818 11.5032 56.4244 12.133C55.4059 13.7626 53.3771 14.3345 51.5634 14.3345C49.4889 14.3345 47.3884 13.5198 45.8583 12.1134C45.7826 12.045 45.7316 11.9537 45.713 11.8534C45.6944 11.7531 45.7094 11.6495 45.7556 11.5586L46.717 9.63078C46.7485 9.56539 46.7952 9.50848 46.8532 9.46482C46.9112 9.42116 46.9787 9.39202 47.0503 9.37982C47.1215 9.36557 47.1951 9.36864 47.2648 9.38878C47.3346 9.40891 47.3985 9.44552 47.4512 9.49552C48.5348 10.4912 50.1033 11.2995 51.6009 11.2995C52.3383 11.2995 53.602 11.1447 53.602 10.162C53.602 9.97462 53.5637 9.80025 53.4659 9.64056C53.2256 9.24538 52.656 8.9985 52.2421 8.84451C51.5414 8.58378 50.7991 8.40452 50.0846 8.17476C49.1476 7.87328 48.1739 7.47404 47.4715 6.75703C46.7692 6.04001 46.4791 5.14782 46.4791 4.15378C46.4791 3.43596 46.6543 2.74583 47.0315 2.13311C48.0158 0.540204 49.9892 0 51.7516 0C53.4325 0 55.221 0.505982 56.6265 1.4381C56.822 1.56765 56.8913 1.81697 56.7911 2.02882L55.8679 3.99408C55.8409 4.05402 55.8012 4.10737 55.7516 4.15042C55.7019 4.19347 55.6435 4.2252 55.5803 4.24341C55.5177 4.26338 55.4515 4.26943 55.3864 4.26112C55.3212 4.25282 55.2586 4.23037 55.203 4.19534ZM37.5132 8.29371L41.4258 0.355247C41.5073 0.19229 41.6629 0.0945152 41.8454 0.0945152H44.4674C44.7249 0.0945152 44.9351 0.305545 44.9351 0.563018V13.7903C44.9349 13.9143 44.8856 14.0332 44.7979 14.121C44.7103 14.2088 44.5915 14.2583 44.4674 14.2588H42.4109C42.287 14.2583 42.1683 14.2089 42.0807 14.1213C41.993 14.0337 41.9436 13.915 41.9432 13.7911L41.9277 5.91861L38.6498 12.617C38.6124 12.6963 38.5529 12.7632 38.4785 12.8097C38.4041 12.8562 38.318 12.8804 38.2302 12.8793H36.7799C36.6921 12.8805 36.6057 12.8563 36.5312 12.8098C36.4567 12.7633 36.3971 12.6964 36.3595 12.617L33.0857 5.92676V13.7894C33.0858 13.851 33.0738 13.9119 33.0503 13.9688C33.0269 14.0257 32.9924 14.0774 32.949 14.121C32.9056 14.1645 32.854 14.1991 32.7972 14.2228C32.7404 14.2464 32.6795 14.2587 32.618 14.2588H30.5264C30.4024 14.2583 30.2837 14.2088 30.1962 14.121C30.1087 14.0332 30.0595 13.9142 30.0595 13.7903V0.562203C30.0595 0.30473 30.2689 0.0937005 30.5264 0.0937005H33.1647C33.3464 0.0937005 33.502 0.191475 33.5835 0.354432L37.5132 8.2929V8.29371ZM19.0966 8.31082C19.0966 10.25 20.2332 11.4127 22.1716 11.4127C24.1173 11.4127 25.1904 10.2411 25.1904 8.31001V0.563018C25.1904 0.305545 25.4006 0.0945152 25.6573 0.0945152H27.8816C28.1383 0.0945152 28.3485 0.305545 28.3485 0.563018V8.31082C28.3485 12.1077 25.8895 14.3541 22.1529 14.3541C18.4187 14.3541 15.9385 12.111 15.9385 8.31082V0.563018C15.9385 0.305545 16.1479 0.0945152 16.4053 0.0945152H18.6297C18.8864 0.0945152 19.0966 0.305545 19.0966 0.563018V8.31082ZM86.543 0.373172L86.7728 0.505983C87.1606 0.730864 87.2959 1.23359 87.071 1.62143L74.309 23.593C74.2008 23.7797 74.023 23.916 73.8146 23.972C73.6062 24.028 73.3841 23.9993 73.1968 23.892L72.967 23.7592C72.7798 23.6503 72.6434 23.4718 72.5875 23.2626C72.5316 23.0534 72.5608 22.8306 72.6688 22.6429L85.4308 0.673014C85.539 0.486291 85.7168 0.350013 85.9252 0.293978C86.1336 0.237943 86.3557 0.266709 86.543 0.373987" fill="black"/>
</svg>
