<svg width="108" height="50" viewBox="0 0 108 50" fill="none" xmlns="http://www.w3.org/2000/svg">
<path d="M45.3632 19.8576C45.5193 19.672 45.6776 19.4875 45.8314 19.3002C48.1591 16.4647 51.1624 15.7914 54.5764 16.6983C57.1589 17.3839 58.8517 19.6815 58.9414 22.7433C59.0568 26.7075 59.0111 30.6762 59.0284 34.6432C59.0368 36.5138 59.1092 36.6147 60.918 37.0908C61.3082 37.1933 61.6961 37.3048 62.1091 37.4185V38.307H51.9968V37.4224C52.7131 37.2524 53.4427 37.0646 54.179 36.9079C54.97 36.7396 55.354 36.2363 55.3479 35.4654C55.315 31.3094 55.3501 27.1501 55.1896 22.9991C55.082 20.2094 53.48 18.8019 50.7103 18.7791C48.8871 18.764 47.197 19.2529 45.8531 20.5488C45.5611 20.8303 45.3303 21.3297 45.3275 21.7311C45.2913 26.2688 45.3147 30.8072 45.2957 35.3455C45.2924 36.2195 45.6475 36.7307 46.4997 36.9152C46.8977 37.0016 47.2845 37.1526 47.6853 37.2139C48.3509 37.3159 48.5671 37.6487 48.3174 38.3226H38.2697V37.4146C38.986 37.2435 39.6917 37.059 40.4051 36.909C41.2223 36.7374 41.6219 36.2502 41.6219 35.4236C41.6219 30.6678 41.6186 25.9127 41.6258 21.1569C41.6269 20.2818 41.2134 19.7194 40.4168 19.4162C39.807 19.1843 39.1827 18.9881 38.583 18.7334C38.4275 18.6676 38.3037 18.4535 38.2424 18.2808C38.2207 18.2194 38.413 18.0087 38.5334 17.982C40.7039 17.4982 42.8789 17.0322 45.1692 16.5367V19.8253C45.2339 19.837 45.2985 19.8482 45.3632 19.8599V19.8576Z" fill="black"/>
<path d="M78.4336 27.7844C78.4838 25.4807 78.9185 23.2806 80.0913 21.2868C82.3192 17.4998 85.7366 16.0066 90.0163 16.4135C94.2069 16.8126 96.898 19.1681 98.1984 23.1011C99.1817 26.0749 99.1928 29.0904 98.1878 32.0725C96.6277 36.7011 92.625 39.3215 87.7371 38.9519C82.9569 38.5907 79.5997 35.4888 78.7541 30.6138C78.5919 29.6801 78.5373 28.7275 78.4336 27.7839V27.7844ZM94.8942 27.9672C94.8027 25.4238 94.5279 22.862 93.1484 20.5705C91.9923 18.6509 90.3452 17.5634 88.0164 17.7674C85.8805 17.9541 84.473 19.2138 83.7584 21.0962C83.1882 22.5984 82.8036 24.2171 82.6336 25.8151C82.3371 28.601 82.6654 31.354 83.8348 33.9476C84.5555 35.5462 85.648 36.8009 87.3776 37.3382C89.867 38.1119 92.2002 37.0512 93.5174 34.5841C94.6127 32.5323 94.8195 30.2922 94.8953 27.9672H94.8942Z" fill="black"/>
<path d="M35.8635 33.7642C36.2068 34.9375 35.8033 35.6454 34.9254 36.2864C32.5414 38.0261 29.955 39.074 26.9612 38.9012C22.9229 38.6687 20.0127 36.5306 18.7262 32.704C17.5317 29.1512 17.5718 25.5738 19.1404 22.1329C20.6576 18.8047 23.225 16.7646 26.9534 16.3878C31.8926 15.8889 35.8562 19.3889 36.0017 24.357C36.0201 24.9773 36.0039 25.5988 36.0039 26.3313H21.8003C21.8672 29.2749 22.1147 32.0669 24.055 34.321C26.0365 36.6225 28.6897 36.802 31.3987 36.0919C32.6551 35.7625 33.7994 34.996 34.9817 34.403C35.2849 34.2508 35.5402 34.0022 35.8635 33.7647V33.7642ZM32.0776 24.9093C32.1395 23.3096 31.9516 21.7924 31.3251 20.3565C30.1306 17.6186 27.1296 16.8471 24.774 18.7066C22.7986 20.2662 22.2596 22.5131 21.9157 24.9093H32.0776Z" fill="black"/>
<path d="M14.606 23.1095H13.4288C13.1361 22.3163 12.8903 21.5081 12.5391 20.7489C12.3184 20.2718 12.0291 19.7389 11.6161 19.4535C9.94333 18.2986 8.08274 17.783 6.04934 18.2406C4.71883 18.5399 3.79466 19.3303 3.53882 20.7138C3.26848 22.1753 3.54327 23.5276 4.84536 24.3988C5.5527 24.872 6.4005 25.163 7.21709 25.4417C8.73378 25.9595 10.3006 26.3374 11.7978 26.9015C13.9187 27.7002 15.4577 29.0753 15.5926 31.5156C15.7369 34.131 14.8429 36.2942 12.5191 37.6565C9.97065 39.1503 7.17473 39.2211 4.35987 38.7217C3.05555 38.4904 1.78412 38.0523 0.516596 37.6504C0.298095 37.5813 0.0322159 37.224 0.0266419 36.9943C-0.0146056 35.2842 0.00434597 33.573 0.00434597 31.8718C0.988156 31.5519 1.07177 31.5914 1.36273 32.4911C1.37109 32.5167 1.38502 32.5413 1.39171 32.5675C1.7596 34.0173 2.23227 35.3556 3.80191 36.0061C5.86707 36.8617 7.92611 37.6186 10.1914 36.8683C11.6228 36.394 12.4466 35.2413 12.533 33.6644C12.615 32.1684 11.9895 31.038 10.6094 30.4789C9.38036 29.9811 8.08162 29.6534 6.81075 29.2604C6.03206 29.0196 5.24223 28.8123 4.46633 28.5625C2.14197 27.8128 0.804214 26.1947 0.416822 23.8146C0.0327733 21.4546 0.864413 19.5355 2.73337 18.0779C4.36655 16.8042 6.28735 16.2474 8.31294 16.3605C10.1206 16.4614 11.9137 16.8371 13.708 17.1258C13.9159 17.1593 14.2392 17.4023 14.2526 17.5684C14.3986 19.3989 14.4939 21.2333 14.606 23.1089V23.1095Z" fill="black"/>
<path d="M77.1767 35.7335C77.4414 36.5512 77.1616 37.0099 76.4448 37.399C74.315 38.5562 72.1133 39.1509 69.7031 38.5099C67.425 37.904 66.3425 36.486 66.3414 34.141C66.3392 29.3602 66.3408 24.5794 66.3408 19.7986C66.3408 19.5054 66.3408 19.2122 66.3408 18.817H62.9307V17.7925C63.5003 17.6297 64.0722 17.4731 64.6397 17.3025C65.8587 16.9369 66.5844 16.1364 66.7059 14.8578C66.8057 13.8071 66.8603 12.7519 66.9384 11.6488C67.9439 11.4359 68.9171 11.2302 70.0057 11V17.0929H77.4543C77.4805 17.2178 77.4961 17.2468 77.4899 17.2707C77.2387 18.3023 76.5812 18.8181 75.5173 18.8181C73.7269 18.8181 71.936 18.8181 70.0297 18.8181C70.0297 19.1871 70.0297 19.4747 70.0297 19.7618C70.0297 24.3252 70.0604 28.8892 70.0091 33.452C69.9957 34.6393 70.5096 35.3433 71.4968 35.8232C73.111 36.6086 74.7581 36.5328 76.4192 35.9916C76.6728 35.9091 76.9242 35.8199 77.1778 35.7329L77.1767 35.7335Z" fill="black"/>
<path d="M104.793 38.8382C103.287 38.8583 102.077 37.6916 102.065 36.2095C102.053 34.719 103.233 33.5195 104.728 33.5022C106.178 33.4855 107.443 34.7357 107.445 36.1844C107.446 37.6019 106.23 38.8187 104.794 38.8382H104.793Z" fill="#E61111"/>
</svg>
