<svg width="125" height="182" viewBox="0 0 125 182" fill="none" xmlns="http://www.w3.org/2000/svg">
<path d="M116.81 54.6442H107.431C105.1 48.3253 103.142 41.8866 100.344 35.8386C98.5858 32.0376 96.2811 27.7925 92.9907 25.5189C79.6648 16.3182 64.8424 12.2108 48.6435 15.8564C38.044 18.2409 30.6817 24.5376 28.6435 35.5589C26.4898 47.2019 28.679 57.9745 39.052 64.915C44.687 68.685 51.441 71.0029 57.9463 73.2232C70.0289 77.3484 82.5112 80.3591 94.4383 84.8529C111.334 91.2161 123.595 102.171 124.669 121.611C125.819 142.446 118.697 159.68 100.184 170.532C79.8824 182.433 57.6089 182.997 35.1843 179.018C24.7936 177.175 14.6648 173.685 4.5671 170.483C2.82642 169.933 0.708307 167.086 0.663902 165.257C0.335305 151.634 0.486282 138.001 0.486282 124.449C8.32376 121.9 8.98984 122.215 11.3078 129.382C11.3744 129.586 11.4854 129.782 11.5387 129.991C14.4694 141.54 18.235 152.202 30.7394 157.384C47.1914 164.2 63.5946 170.23 81.6408 164.253C93.044 160.475 99.6071 151.292 100.295 138.729C100.948 126.811 95.9659 117.806 84.9712 113.352C75.1799 109.387 64.8335 106.776 54.7092 103.645C48.5058 101.727 42.2136 100.075 36.0325 98.0855C17.5156 92.1131 6.8584 79.2223 3.77225 60.2614C0.712748 41.4603 7.33797 26.1717 22.227 14.5598C35.2376 4.41324 50.5396 -0.0228188 66.6763 0.878602C81.0769 1.68233 95.362 4.67523 109.656 6.97541C111.312 7.24184 113.888 9.17789 113.994 10.5012C115.158 25.0838 115.917 39.6974 116.81 54.6397V54.6442Z" fill="white"/>
</svg>
