<svg width="14" height="14" viewBox="0 0 14 14" fill="none" xmlns="http://www.w3.org/2000/svg">
<path d="M7.00282 3.85525C5.26376 3.85525 3.86103 5.25798 3.86103 6.99705C3.86103 8.73611 5.26376 10.1388 7.00282 10.1388C8.74188 10.1388 10.1446 8.73611 10.1446 6.99705C10.1446 5.25798 8.74188 3.85525 7.00282 3.85525ZM7.00282 9.03962C5.87899 9.03962 4.96024 8.12361 4.96024 6.99705C4.96024 5.87048 5.87626 4.95447 7.00282 4.95447C8.12938 4.95447 9.04539 5.87048 9.04539 6.99705C9.04539 8.12361 8.12664 9.03962 7.00282 9.03962V9.03962ZM11.0059 3.72673C11.0059 4.13416 10.6778 4.45955 10.2731 4.45955C9.8657 4.45955 9.54031 4.13142 9.54031 3.72673C9.54031 3.32205 9.86844 2.99392 10.2731 2.99392C10.6778 2.99392 11.0059 3.32205 11.0059 3.72673ZM13.0868 4.47048C13.0403 3.48884 12.8161 2.61931 12.0969 1.90291C11.3805 1.1865 10.511 0.96228 9.52937 0.913062C8.51766 0.85564 5.48524 0.85564 4.47353 0.913062C3.49462 0.959546 2.62509 1.18376 1.90595 1.90017C1.18682 2.61658 0.965332 3.48611 0.916113 4.46775C0.858691 5.47947 0.858691 8.51189 0.916113 9.52361C0.962597 10.5052 1.18682 11.3748 1.90595 12.0912C2.62509 12.8076 3.49189 13.0318 4.47353 13.081C5.48524 13.1385 8.51766 13.1385 9.52937 13.081C10.511 13.0345 11.3805 12.8103 12.0969 12.0912C12.8134 11.3748 13.0376 10.5052 13.0868 9.52361C13.1442 8.51189 13.1442 5.4822 13.0868 4.47048V4.47048ZM11.7798 10.6092C11.5665 11.1451 11.1536 11.558 10.6149 11.774C9.80828 12.0939 7.89422 12.0201 7.00282 12.0201C6.11141 12.0201 4.19462 12.0912 3.39072 11.774C2.85478 11.5607 2.44189 11.1478 2.22588 10.6092C1.90595 9.80251 1.97978 7.88845 1.97978 6.99705C1.97978 6.10564 1.90869 4.18884 2.22588 3.38494C2.43916 2.849 2.85205 2.43611 3.39072 2.22009C4.19736 1.90017 6.11141 1.974 7.00282 1.974C7.89422 1.974 9.81101 1.90291 10.6149 2.22009C11.1509 2.43337 11.5637 2.84626 11.7798 3.38494C12.0997 4.19158 12.0259 6.10564 12.0259 6.99705C12.0259 7.88845 12.0997 9.80525 11.7798 10.6092Z" fill="white"/>
</svg>
