<svg width="14" height="14" viewBox="0 0 14 14" fill="none" xmlns="http://www.w3.org/2000/svg">
<path d="M12.25 0.875H1.74727C1.26602 0.875 0.875 1.27148 0.875 1.7582V12.2418C0.875 12.7285 1.26602 13.125 1.74727 13.125H12.25C12.7313 13.125 13.125 12.7285 13.125 12.2418V1.7582C13.125 1.27148 12.7313 0.875 12.25 0.875ZM4.57734 11.375H2.76172V5.52891H4.58008V11.375H4.57734ZM3.66953 4.73047C3.08711 4.73047 2.6168 4.25742 2.6168 3.67773C2.6168 3.09805 3.08711 2.625 3.66953 2.625C4.24922 2.625 4.72227 3.09805 4.72227 3.67773C4.72227 4.26016 4.25195 4.73047 3.66953 4.73047V4.73047ZM11.3832 11.375H9.56758V8.53125C9.56758 7.85313 9.55391 6.98086 8.62422 6.98086C7.67812 6.98086 7.5332 7.71914 7.5332 8.48203V11.375H5.71758V5.52891H7.45938V6.32734H7.48398C7.72734 5.86797 8.3207 5.38398 9.20391 5.38398C11.0414 5.38398 11.3832 6.59531 11.3832 8.17031V11.375V11.375Z" fill="white"/>
</svg>
