<svg width="14" height="10" viewBox="0 0 14 10" fill="none" xmlns="http://www.w3.org/2000/svg">
<path d="M13.3597 1.79372C13.207 1.2189 12.7572 0.766183 12.1861 0.612548C11.1509 0.333374 6.99997 0.333374 6.99997 0.333374C6.99997 0.333374 2.84906 0.333374 1.81386 0.612548C1.24275 0.766207 0.792954 1.2189 0.640291 1.79372C0.362915 2.83563 0.362915 5.00947 0.362915 5.00947C0.362915 5.00947 0.362915 7.18331 0.640291 8.22522C0.792954 8.80004 1.24275 9.2339 1.81386 9.38753C2.84906 9.66671 6.99997 9.66671 6.99997 9.66671C6.99997 9.66671 11.1509 9.66671 12.1861 9.38753C12.7572 9.2339 13.207 8.80004 13.3597 8.22522C13.637 7.18331 13.637 5.00947 13.637 5.00947C13.637 5.00947 13.637 2.83563 13.3597 1.79372V1.79372ZM5.64238 6.98316V3.03579L9.11174 5.00952L5.64238 6.98316V6.98316Z" fill="white"/>
</svg>
